<mxfile host="app.diagrams.net" modified="2022-03-24T10:43:37.757Z" agent="5.0 (Windows NT 10.0; Win64; x64) AppleWebKit/537.36 (KHTML, like Gecko) Chrome/99.0.4844.74 Safari/537.36 Edg/99.0.1150.46" etag="oPNHTMqbvKMGwgKJPJYp" version="17.2.1" type="github">
  <diagram id="kwpMiz8Tt8vMMcukP0Hm" name="Page-1">
    <mxGraphModel dx="1320" dy="551" grid="0" gridSize="10" guides="1" tooltips="1" connect="1" arrows="1" fold="1" page="0" pageScale="1" pageWidth="850" pageHeight="1100" math="0" shadow="0">
      <root>
        <mxCell id="0" />
        <mxCell id="1" parent="0" />
        <mxCell id="Fxl1YO9zksyHe61xAAHj-1" value="P0" style="ellipse;whiteSpace=wrap;html=1;aspect=fixed;hachureGap=4;" vertex="1" parent="1">
          <mxGeometry x="-26" y="134" width="80" height="80" as="geometry" />
        </mxCell>
        <mxCell id="Fxl1YO9zksyHe61xAAHj-2" value="P1" style="ellipse;whiteSpace=wrap;html=1;aspect=fixed;hachureGap=4;" vertex="1" parent="1">
          <mxGeometry x="114" y="134" width="80" height="80" as="geometry" />
        </mxCell>
        <mxCell id="Fxl1YO9zksyHe61xAAHj-3" value="P2" style="ellipse;whiteSpace=wrap;html=1;aspect=fixed;hachureGap=4;" vertex="1" parent="1">
          <mxGeometry x="253" y="134" width="80" height="80" as="geometry" />
        </mxCell>
        <mxCell id="Fxl1YO9zksyHe61xAAHj-4" value="P3" style="ellipse;whiteSpace=wrap;html=1;aspect=fixed;hachureGap=4;" vertex="1" parent="1">
          <mxGeometry x="380" y="134" width="80" height="80" as="geometry" />
        </mxCell>
        <mxCell id="Fxl1YO9zksyHe61xAAHj-5" value="" style="endArrow=classic;html=1;rounded=0;startSize=14;endSize=14;sourcePerimeterSpacing=8;targetPerimeterSpacing=8;curved=1;exitX=1;exitY=0.5;exitDx=0;exitDy=0;entryX=0;entryY=0.5;entryDx=0;entryDy=0;" edge="1" parent="1" source="Fxl1YO9zksyHe61xAAHj-1" target="Fxl1YO9zksyHe61xAAHj-2">
          <mxGeometry width="50" height="50" relative="1" as="geometry">
            <mxPoint x="232" y="241" as="sourcePoint" />
            <mxPoint x="282" y="191" as="targetPoint" />
          </mxGeometry>
        </mxCell>
        <mxCell id="Fxl1YO9zksyHe61xAAHj-8" value="" style="edgeStyle=segmentEdgeStyle;endArrow=classic;html=1;rounded=0;startSize=14;endSize=14;sourcePerimeterSpacing=8;targetPerimeterSpacing=8;curved=1;exitX=1;exitY=0.5;exitDx=0;exitDy=0;entryX=0.5;entryY=0;entryDx=0;entryDy=0;" edge="1" parent="1" source="Fxl1YO9zksyHe61xAAHj-2" target="Fxl1YO9zksyHe61xAAHj-4">
          <mxGeometry width="50" height="50" relative="1" as="geometry">
            <mxPoint x="170" y="92" as="sourcePoint" />
            <mxPoint x="220" y="42" as="targetPoint" />
            <Array as="points">
              <mxPoint x="194" y="86" />
              <mxPoint x="420" y="86" />
            </Array>
          </mxGeometry>
        </mxCell>
        <mxCell id="Fxl1YO9zksyHe61xAAHj-9" value="PHI1=0 &amp;amp;&amp;amp; FC=0" style="text;html=1;align=center;verticalAlign=middle;resizable=0;points=[];autosize=1;strokeColor=none;fillColor=none;hachureGap=4;" vertex="1" parent="1">
          <mxGeometry x="212" y="55" width="103" height="18" as="geometry" />
        </mxCell>
        <mxCell id="Fxl1YO9zksyHe61xAAHj-10" value="" style="endArrow=classic;html=1;rounded=0;startSize=14;endSize=14;sourcePerimeterSpacing=8;targetPerimeterSpacing=8;curved=1;exitX=1;exitY=0.5;exitDx=0;exitDy=0;entryX=0;entryY=0.5;entryDx=0;entryDy=0;" edge="1" parent="1" source="Fxl1YO9zksyHe61xAAHj-2" target="Fxl1YO9zksyHe61xAAHj-3">
          <mxGeometry width="50" height="50" relative="1" as="geometry">
            <mxPoint x="232" y="241" as="sourcePoint" />
            <mxPoint x="282" y="191" as="targetPoint" />
          </mxGeometry>
        </mxCell>
        <mxCell id="Fxl1YO9zksyHe61xAAHj-11" value="PHI1=1" style="text;html=1;align=center;verticalAlign=middle;resizable=0;points=[];autosize=1;strokeColor=none;fillColor=none;hachureGap=4;" vertex="1" parent="1">
          <mxGeometry x="190" y="184" width="51" height="18" as="geometry" />
        </mxCell>
        <mxCell id="Fxl1YO9zksyHe61xAAHj-13" value="FC=1" style="text;html=1;align=center;verticalAlign=middle;resizable=0;points=[];autosize=1;strokeColor=none;fillColor=none;hachureGap=4;" vertex="1" parent="1">
          <mxGeometry x="310" y="273" width="40" height="18" as="geometry" />
        </mxCell>
        <mxCell id="Fxl1YO9zksyHe61xAAHj-14" value="SKO" style="text;html=1;align=center;verticalAlign=middle;resizable=0;points=[];autosize=1;strokeColor=none;fillColor=none;hachureGap=4;" vertex="1" parent="1">
          <mxGeometry x="410" y="266" width="35" height="18" as="geometry" />
        </mxCell>
        <mxCell id="Fxl1YO9zksyHe61xAAHj-18" value="" style="edgeStyle=segmentEdgeStyle;endArrow=classic;html=1;rounded=0;startSize=14;endSize=14;sourcePerimeterSpacing=8;targetPerimeterSpacing=8;curved=1;exitX=0.5;exitY=1;exitDx=0;exitDy=0;" edge="1" parent="1" source="Fxl1YO9zksyHe61xAAHj-3">
          <mxGeometry width="50" height="50" relative="1" as="geometry">
            <mxPoint x="294" y="218.23" as="sourcePoint" />
            <mxPoint x="410.7199999999998" y="274.95" as="targetPoint" />
            <Array as="points">
              <mxPoint x="293" y="275" />
            </Array>
          </mxGeometry>
        </mxCell>
        <mxCell id="Fxl1YO9zksyHe61xAAHj-20" value="" style="edgeStyle=segmentEdgeStyle;endArrow=classic;html=1;rounded=0;startSize=14;endSize=14;sourcePerimeterSpacing=8;targetPerimeterSpacing=8;curved=1;exitX=0.5;exitY=1;exitDx=0;exitDy=0;" edge="1" parent="1" source="Fxl1YO9zksyHe61xAAHj-2">
          <mxGeometry width="50" height="50" relative="1" as="geometry">
            <mxPoint x="152" y="218" as="sourcePoint" />
            <mxPoint x="269.7199999999998" y="278.95000000000005" as="targetPoint" />
            <Array as="points">
              <mxPoint x="152" y="214" />
              <mxPoint x="152" y="279" />
            </Array>
          </mxGeometry>
        </mxCell>
        <mxCell id="Fxl1YO9zksyHe61xAAHj-21" value="SKO" style="text;html=1;align=center;verticalAlign=middle;resizable=0;points=[];autosize=1;strokeColor=none;fillColor=none;hachureGap=4;" vertex="1" parent="1">
          <mxGeometry x="262" y="266" width="35" height="18" as="geometry" />
        </mxCell>
        <mxCell id="Fxl1YO9zksyHe61xAAHj-25" value="FC=1" style="text;html=1;align=center;verticalAlign=middle;resizable=0;points=[];autosize=1;strokeColor=none;fillColor=none;hachureGap=4;" vertex="1" parent="1">
          <mxGeometry x="163" y="281" width="40" height="18" as="geometry" />
        </mxCell>
        <mxCell id="Fxl1YO9zksyHe61xAAHj-26" value="" style="endArrow=classic;html=1;rounded=0;startSize=14;endSize=14;sourcePerimeterSpacing=8;targetPerimeterSpacing=8;curved=1;exitX=0;exitY=0.5;exitDx=0;exitDy=0;entryX=1;entryY=0.5;entryDx=0;entryDy=0;" edge="1" parent="1" source="Fxl1YO9zksyHe61xAAHj-4" target="Fxl1YO9zksyHe61xAAHj-3">
          <mxGeometry width="50" height="50" relative="1" as="geometry">
            <mxPoint x="232" y="159" as="sourcePoint" />
            <mxPoint x="282" y="109" as="targetPoint" />
          </mxGeometry>
        </mxCell>
        <mxCell id="Fxl1YO9zksyHe61xAAHj-27" value="" style="edgeStyle=segmentEdgeStyle;endArrow=classic;html=1;rounded=0;startSize=14;endSize=14;sourcePerimeterSpacing=8;targetPerimeterSpacing=8;curved=1;exitX=1;exitY=1;exitDx=0;exitDy=0;" edge="1" parent="1" source="Fxl1YO9zksyHe61xAAHj-3">
          <mxGeometry width="50" height="50" relative="1" as="geometry">
            <mxPoint x="373" y="264" as="sourcePoint" />
            <mxPoint x="423" y="214" as="targetPoint" />
            <Array as="points">
              <mxPoint x="321" y="240" />
              <mxPoint x="423" y="240" />
            </Array>
          </mxGeometry>
        </mxCell>
        <mxCell id="Fxl1YO9zksyHe61xAAHj-28" value="FC=0" style="text;html=1;align=center;verticalAlign=middle;resizable=0;points=[];autosize=1;strokeColor=none;fillColor=none;hachureGap=4;" vertex="1" parent="1">
          <mxGeometry x="348" y="214" width="40" height="18" as="geometry" />
        </mxCell>
        <mxCell id="Fxl1YO9zksyHe61xAAHj-29" value="" style="endArrow=classic;html=1;rounded=0;startSize=14;endSize=14;sourcePerimeterSpacing=8;targetPerimeterSpacing=8;curved=1;entryX=0;entryY=0.5;entryDx=0;entryDy=0;" edge="1" parent="1" target="Fxl1YO9zksyHe61xAAHj-1">
          <mxGeometry width="50" height="50" relative="1" as="geometry">
            <mxPoint x="-106" y="204" as="sourcePoint" />
            <mxPoint x="282" y="109" as="targetPoint" />
          </mxGeometry>
        </mxCell>
        <mxCell id="Fxl1YO9zksyHe61xAAHj-30" value="SNO" style="text;html=1;align=center;verticalAlign=middle;resizable=0;points=[];autosize=1;strokeColor=none;fillColor=none;hachureGap=4;" vertex="1" parent="1">
          <mxGeometry x="-113" y="172" width="36" height="18" as="geometry" />
        </mxCell>
      </root>
    </mxGraphModel>
  </diagram>
</mxfile>
